<svg xmlns="http://www.w3.org/2000/svg" viewBox="0 0 211.00 41.97" data-guides="{&quot;vertical&quot;:[],&quot;horizontal&quot;:[]}"> <path fill="#4D5967" stroke="none" fill-opacity="1" stroke-width="0.8" stroke-opacity="1" id="tSvgdab8269801" title="Path 21" d="M54.1988 28.3676C54.5382 28.9724 54.8994 29.4961 55.283 29.9385C55.6813 30.381 56.1165 30.7277 56.5885 30.9786C57.0752 31.2293 57.6062 31.3547 58.1816 31.3547C58.8896 31.3547 59.4649 31.1628 59.9075 30.7795C60.3499 30.3959 60.5712 29.8943 60.5712 29.2749C60.5712 28.7143 60.4311 28.2645 60.1508 27.9252C59.8853 27.5712 59.5017 27.2761 59.0002 27.04C58.4987 26.7893 57.9235 26.546 57.2743 26.3099C56.8909 26.1772 56.4631 26.0002 55.991 25.779C55.5191 25.5429 55.0691 25.2553 54.6415 24.916C54.2136 24.5619 53.8596 24.1342 53.5793 23.6327C53.299 23.1164 53.159 22.4968 53.159 21.774C53.159 20.948 53.3727 20.2252 53.8005 19.6057C54.2284 18.9713 54.8036 18.4773 55.5264 18.1232C56.264 17.7692 57.0974 17.5922 58.0268 17.5922C58.9413 17.5922 59.7377 17.7618 60.4163 18.1011C61.0948 18.4256 61.6702 18.8386 62.1421 19.3402C62.6142 19.8417 62.9755 20.3654 63.2264 20.9111C62.5257 21.3094 61.8251 21.7077 61.1244 22.106C60.9178 21.7224 60.6671 21.3684 60.3721 21.0439C60.0771 20.7046 59.7305 20.4391 59.332 20.2473C58.9486 20.0408 58.4987 19.9376 57.9825 19.9376C57.2597 19.9376 56.7285 20.1072 56.3894 20.4465C56.05 20.771 55.8804 21.1545 55.8804 21.597C55.8804 21.9953 55.9985 22.3567 56.2345 22.6812C56.4852 22.991 56.8688 23.286 57.385 23.5663C57.9014 23.8465 58.5725 24.1342 59.3986 24.4292C59.8705 24.5915 60.3351 24.798 60.7924 25.0487C61.2645 25.2996 61.6848 25.6092 62.0537 25.9781C62.4373 26.3469 62.7469 26.7893 62.983 27.3057C63.2191 27.8072 63.337 28.3972 63.337 29.0758C63.337 29.7985 63.1894 30.4476 62.8945 31.0228C62.6142 31.598 62.2307 32.085 61.7439 32.4832C61.2572 32.8666 60.7039 33.1617 60.0844 33.3681C59.4796 33.5893 58.8453 33.7002 58.1816 33.7002C57.2819 33.7002 56.441 33.523 55.6591 33.169C54.8922 32.8002 54.2136 32.3135 53.6235 31.7087C53.0484 31.104 52.5911 30.4476 52.2517 29.7394C52.9007 29.2822 53.5498 28.8249 54.1988 28.3676ZM78.54 28.7658C80.0593 25.1372 81.5786 21.5085 83.0979 17.8798C84.1083 17.8798 85.1188 17.8798 86.1292 17.8798C83.5995 23.3303 81.0697 28.7807 78.54 34.2311C76.0176 28.7807 73.4952 23.3303 70.9728 17.8798C71.9758 17.8798 72.9789 17.8798 73.982 17.8798C75.5014 21.5085 77.0207 25.1372 78.54 28.7658ZM96.1621 33.3681C96.1621 32.6011 96.1621 31.8341 96.1621 31.067C98.7655 31.067 101.369 31.067 103.9724 31.067C103.9724 31.8341 103.9724 32.6011 103.9724 33.3681C101.369 33.3681 98.7655 33.3681 96.1621 33.3681ZM96.1621 20.181C96.1621 19.4139 96.1621 18.6468 96.1621 17.8798C98.7655 17.8798 101.369 17.8798 103.9724 17.8798C103.9724 18.6468 103.9724 19.4139 103.9724 20.181C101.369 20.181 98.7655 20.181 96.1621 20.181ZM96.1621 26.1993C96.1621 25.447 96.1621 24.6947 96.1621 23.9424C98.618 23.9424 101.074 23.9424 103.5299 23.9424C103.5299 24.6947 103.5299 25.447 103.5299 26.1993C101.074 26.1993 98.618 26.1993 96.1621 26.1993ZM94.5468 17.8798C95.4023 17.8798 96.2579 17.8798 97.1133 17.8798C97.1133 23.0426 97.1133 28.2054 97.1133 33.3681C96.2579 33.3681 95.4023 33.3681 94.5468 33.3681C94.5468 28.2054 94.5468 23.0426 94.5468 17.8798ZM112.2763 20.2916C112.2763 19.4876 112.2763 18.6837 112.2763 17.8798C115.8755 17.8798 119.4746 17.8798 123.0738 17.8798C123.0738 18.6837 123.0738 19.4876 123.0738 20.2916C121.7094 20.2916 120.3449 20.2916 118.9805 20.2916C118.9805 24.6505 118.9805 29.0093 118.9805 33.3681C118.1102 33.3681 117.2399 33.3681 116.3695 33.3681C116.3695 29.0093 116.3695 24.6505 116.3695 20.2916C115.0051 20.2916 113.6407 20.2916 112.2763 20.2916ZM138.1901 28.7658C139.7094 25.1372 141.2288 21.5085 142.7481 17.8798C143.7585 17.8798 144.7689 17.8798 145.7792 17.8798C143.2495 23.3303 140.7198 28.7807 138.1901 34.2311C135.6677 28.7807 133.1452 23.3303 130.6228 17.8798C131.6259 17.8798 132.6289 17.8798 133.632 17.8798C135.1514 21.5085 136.6707 25.1372 138.1901 28.7658ZM154.1969 17.8798C155.0819 17.8798 155.9669 17.8798 156.8519 17.8798C156.8519 23.0426 156.8519 28.2054 156.8519 33.3681C155.9669 33.3681 155.0819 33.3681 154.1969 33.3681C154.1969 28.2054 154.1969 23.0426 154.1969 17.8798ZM166.928 17.8798C167.7983 17.8798 168.6686 17.8798 169.5389 17.8798C169.5389 22.2608 169.5389 26.6418 169.5389 31.0228C171.5893 31.0228 173.6397 31.0228 175.6901 31.0228C175.6901 31.8046 175.6901 32.5863 175.6901 33.3681C172.7694 33.3681 169.8487 33.3681 166.928 33.3681C166.928 28.2054 166.928 23.0426 166.928 17.8798ZM184.2185 17.8798C185.0888 17.8798 185.959 17.8798 186.8293 17.8798C186.8293 22.2608 186.8293 26.6418 186.8293 31.0228C188.8797 31.0228 190.93 31.0228 192.9804 31.0228C192.9804 31.8046 192.9804 32.5863 192.9804 33.3681C190.0598 33.3681 187.1392 33.3681 184.2185 33.3681C184.2185 28.2054 184.2185 23.0426 184.2185 17.8798ZM203.1246 33.3681C203.1246 32.6011 203.1246 31.8341 203.1246 31.067C205.7281 31.067 208.3316 31.067 210.9351 31.067C210.9351 31.8341 210.9351 32.6011 210.9351 33.3681C208.3316 33.3681 205.7281 33.3681 203.1246 33.3681ZM203.1246 20.181C203.1246 19.4139 203.1246 18.6468 203.1246 17.8798C205.7281 17.8798 208.3316 17.8798 210.9351 17.8798C210.9351 18.6468 210.9351 19.4139 210.9351 20.181C208.3316 20.181 205.7281 20.181 203.1246 20.181ZM203.1246 26.1993C203.1246 25.447 203.1246 24.6947 203.1246 23.9424C205.5807 23.9424 208.0366 23.9424 210.4926 23.9424C210.4926 24.6947 210.4926 25.447 210.4926 26.1993C208.0366 26.1993 205.5807 26.1993 203.1246 26.1993ZM201.5089 17.8798C202.3642 17.8798 203.2195 17.8798 204.0748 17.8798C204.0748 23.0426 204.0748 28.2054 204.0748 33.3681C203.2195 33.3681 202.3642 33.3681 201.5089 33.3681"></path> <path fill="url(#tSvgGradientc40acbc60e)" stroke="none" fill-opacity="1" stroke-width="0.8" stroke-opacity="1" id="tSvg9966d4742f" title="Path 22" d="M24.7699 8.2542C23.116 9.0813 17.6337 11.0376 13.5324 15.8521C10.3318 19.6093 10.0385 26.5565 10.3019 29.7915C5.8747 23.676 8.577 18.1347 9.6848 14.6278C10.4342 12.5884 13.9253 8.7862 15.7398 7.1754C18.8139 4.5671 24.5629 2.8902 27.3404 2.7017C32.1428 2.3758 33.3673 3.3611 33.5298 5.1319C33.6452 7.0232 30.8198 7.3619 29.3949 7.317"></path> <path fill="url(#tSvgGradient72444c354a)" stroke="none" fill-opacity="1" stroke-width="0.8" stroke-opacity="1" id="tSvg12020bf661e" title="Path 23" d="M15.7712 0.3907C14.2597 -0.689 11.9028 0.74 10.7289 1.4178C6.5248 3.4589 2.7197 9.7843 1.335 12.6825C-3.0934 26.2665 4.6726 35.3444 9.1091 38.1854C17.6779 44.3591 26.5689 40.7577 29.9431 38.1854C31.4046 37.3484 32.3378 35.198 32.6669 34.0908C32.6815 34.0416 32.625 34.0045 32.5843 34.0357C32.2598 34.2844 31.9353 34.5331 31.6108 34.7817C27.7505 38.4464 23.5606 38.4333 20.1644 38.3711C14.38 38.6755 9.4275 32.5202 7.6742 29.4045C5.0112 24.2211 6.0099 19.4183 6.3923 16.2471C7.148 11.254 11.7452 6.8345 13.9494 5.2488"></path> <path fill="url(#tSvgGradient2e1384b7f1)" stroke="none" fill-opacity="1" stroke-width="0.8" stroke-opacity="1" id="tSvg5e900ca5d9" title="Path 24" d="M37.4333 17.2115C36.7028 16.4401 35.3825 14.8615 32.2556 13.1485C29.7685 11.786 24.9785 11.5472 23.1967 11.8323C25.8213 8.3785 30.0075 9.4115 32.1475 9.6522C33.3938 9.7242 36.0666 11.0101 37.2548 11.7393C39.2014 12.9947 41.0817 15.8763 41.6484 17.3721C42.6282 19.9584 42.2906 20.7959 41.344 21.1805C40.3232 21.5592 39.1478 20.441 38.9351 19.6499"></path> <path fill="url(#tSvgGradient1259109fdad)" stroke="none" fill-opacity="1" stroke-width="0.8" stroke-opacity="1" id="tSvg10fb3d2b68e" title="Path 25" d="M35.6628 31.3353C35.9164 30.5236 36.238 30.4135 36.2135 27.5604C36.1942 25.2908 36.2135 22.1876 35.6628 20.9052C38.364 23.5308 38.1185 24.152 38.7346 25.8004C39.1747 26.8586 39.2202 29.2477 39.1747 30.3626C39.0578 32.2127 38.5711 33.9133 37.7474 34.8932C36.3231 36.5877 35.9319 36.4552 35.2936 35.944"></path> <ellipse fill="url(#tSvgGradientdc2e6aeb91)" fill-opacity="1" stroke="#ffdf00" stroke-opacity="1" stroke-width="0" id="tSvg1456f7d141b" title="Ellipse 9" cx="23.331665332729244" cy="25.24532779515721" rx="7.09767062540277" ry="7.09767062540277" style="transform: rotate(0deg);"></ellipse> <ellipse fill="none" fill-opacity="1" stroke="#FFF3CF" stroke-opacity="1" stroke-width="0" id="tSvg2c5e9f0e3d" title="Ellipse 10" cx="23.331665332728335" cy="25.24532779515812" rx="8.527800352493614" ry="8.527800352494523" style="transform: rotate(0deg);"></ellipse> <defs> <linearGradient id="tSvgGradientc40acbc60e" x1="82.12446728045688" x2="22.28169183251248" y1="10.483555395358962" y2="145.45150216386446" baseline-shift="baseline" color-interpolation-filters="linearRGB" color-interpolation="sRGB" font-size-adjust="" font-stretch="normal" gradientUnits="userSpaceOnUse" gradientTransform=""> <stop offset="0.00" stop-color="hsl(212.292,14.44%,35.29%)" stop-opacity="1.00" transform="translate(-5820, -4600)"></stop> <stop offset="1.00" stop-color="hsl(212.292,34.21%,70.19999999999999%)" stop-opacity="1.00" transform="translate(-5820, -4600)"></stop> </linearGradient> <linearGradient id="tSvgGradient72444c354a" x1="26.782571683853348" x2="151.98125554687158" y1="22.771840881315256" y2="165.17283605501143" baseline-shift="baseline" color-interpolation-filters="linearRGB" color-interpolation="sRGB" font-size-adjust="" font-stretch="normal" gradientUnits="userSpaceOnUse" gradientTransform=""> <stop offset="0.01" stop-color="hsl(212.292,14.44%,35.29%)" stop-opacity="1.00" transform="translate(-5820, -4600)"></stop> <stop offset="1.00" stop-color="hsl(212.292,34.21%,70.19999999999999%)" stop-opacity="1.00" transform="translate(-5820, -4600)"></stop> </linearGradient> <linearGradient id="tSvgGradient2e1384b7f1" x1="121.32558191792305" x2="169.58035595382898" y1="33.388651218028826" y2="95.45424183005252" baseline-shift="baseline" color-interpolation-filters="linearRGB" color-interpolation="sRGB" font-size-adjust="" font-stretch="normal" gradientUnits="userSpaceOnUse" gradientTransform=""> <stop offset="0.00" stop-color="hsl(212.292,14.44%,35.29%)" stop-opacity="1.00" transform="translate(-5820, -4600)"></stop> <stop offset="1.00" stop-color="hsl(212.292,34.21%,70.19999999999999%)" stop-opacity="1.00" transform="translate(-5820, -4600)"></stop> </linearGradient> <linearGradient id="tSvgGradient1259109fdad" x1="149.55316145862616" x2="112.61670207509269" y1="98.49597411034756" y2="151.4093205302015" baseline-shift="baseline" color-interpolation-filters="linearRGB" color-interpolation="sRGB" font-size-adjust="" font-stretch="normal" gradientUnits="userSpaceOnUse" gradientTransform=""> <stop offset="0.00" stop-color="hsl(212.292,14.44%,35.29%)" stop-opacity="1.00" transform="translate(-5820, -4600)"></stop> <stop offset="1.00" stop-color="hsl(212.292,34.21%,70.19999999999999%)" stop-opacity="1.00" transform="translate(-5820, -4600)"></stop> </linearGradient> <radialGradient id="tSvgGradientdc2e6aeb91" x1="NaN" x2="NaN" y1="NaN" y2="NaN" baseline-shift="baseline" color-interpolation-filters="linearRGB" color-interpolation="sRGB" font-size-adjust="" font-stretch="normal" cx="0" cy="0" r="1" gradientUnits="objectBoundingBox" gradientTransform="translate(1.296437738210965 7.311874875347714) rotate(90) scale(0.1336021863580923 0.1336021863580923)"> <stop offset="0.00" stop-color="hsl(0,0%,20%)" stop-opacity="1.00" transform="translate(-5820, -4600)"></stop> <stop offset="1.00" stop-color="hsl(45.792,60.64000000000001%,63.13999999999999%)" stop-opacity="1.00" transform="translate(-5820, -4600)"></stop> </radialGradient> </defs> </svg>